<svg width="18" height="24" viewBox="0 0 18 24" fill="none" xmlns="http://www.w3.org/2000/svg">
<g id="sign-out-icon 1" clip-path="url(#clip0_245_2529)">
<path id="Vector" d="M13.2188 13.4101H8.11914C7.75397 13.3965 7.40829 13.2419 7.15474 12.9787C6.9012 12.7156 6.75954 12.3644 6.75954 11.999C6.75954 11.6335 6.9012 11.2823 7.15474 11.0192C7.40829 10.756 7.75397 10.6014 8.11914 10.5878H13.2188L11.5625 8.74017C11.3153 8.46254 11.1872 8.09884 11.2059 7.72758C11.2245 7.35632 11.3884 7.00728 11.6621 6.7558C11.7967 6.63199 11.9547 6.53621 12.1267 6.47402C12.2987 6.41183 12.4813 6.38449 12.664 6.39358C12.8467 6.40267 13.0257 6.44801 13.1907 6.52696C13.3557 6.60591 13.5033 6.7169 13.625 6.85345L17.3789 11.0429C17.6148 11.3021 17.7465 11.6394 17.7487 11.9899C17.7508 12.3404 17.6233 12.6792 17.3906 12.9413L13.625 17.1425C13.5036 17.2794 13.3561 17.3908 13.1912 17.4701C13.0263 17.5494 12.8472 17.595 12.6645 17.6042C12.4817 17.6135 12.2989 17.5863 12.1268 17.5241C11.9547 17.4619 11.7967 17.3661 11.6621 17.2421C11.3884 16.9906 11.2245 16.6416 11.2059 16.2703C11.1872 15.8991 11.3153 15.5354 11.5625 15.2578L13.2188 13.4101ZM8.63672 21.205C8.81844 21.2413 8.99123 21.313 9.14524 21.4161C9.29924 21.5192 9.43143 21.6516 9.53426 21.8057C9.63709 21.9599 9.70856 22.1328 9.74457 22.3146C9.78058 22.4964 9.78043 22.6835 9.74414 22.8652C9.70785 23.0469 9.63612 23.2197 9.53304 23.3737C9.42997 23.5277 9.29758 23.6599 9.14342 23.7627C8.98926 23.8655 8.81635 23.937 8.63457 23.973C8.4528 24.009 8.26571 24.0089 8.08398 23.9726L7.42578 23.8398C2.75781 22.914 0.25 22.3886 0.25 15.664V7.93549C0.25 1.49408 2.94141 0.990173 7.39844 0.158142L8.0957 0.0253296C8.46271 -0.0448596 8.84256 0.0336177 9.1517 0.243497C9.46084 0.453377 9.67395 0.777467 9.74414 1.14447C9.81433 1.51147 9.73585 1.89133 9.52597 2.20047C9.31609 2.50961 8.992 2.72272 8.625 2.79291L7.91602 2.92963C4.89648 3.49408 3.07227 3.83392 3.07227 7.93939V15.664C3.07227 20.08 4.78516 20.4413 7.97461 21.0742L8.63672 21.205Z" fill="#7E7E7E"/>
</g>
<defs>
<clipPath id="clip0_245_2529">
<rect width="17.5" height="24" fill="white" transform="translate(0.25)"/>
</clipPath>
</defs>
</svg>
