<svg width="64" height="64" viewBox="0 0 64 64" fill="none" xmlns="http://www.w3.org/2000/svg">
<rect x="0.5" y="0.5" width="63" height="63" rx="7.5" fill="white"/>
<g clip-path="url(#clip0_245_2100)">
<path d="M39.5 9.5C38.875 9.5 34.5 10.75 34.5 16.375V20.75C34.5 22.1289 35.6211 23.25 37 23.25H38.25V28.25C38.25 28.9414 38.8086 29.5 39.5 29.5C40.1914 29.5 40.75 28.9414 40.75 28.25V23.25V18.875V10.75C40.75 10.0586 40.1914 9.5 39.5 9.5ZM25.75 10.125C25.75 9.80469 25.5117 9.53906 25.1914 9.50391C24.8711 9.46875 24.5859 9.67969 24.5156 9.98828L23.332 15.3125C23.2773 15.5586 23.25 15.8086 23.25 16.0586C23.25 17.8516 24.6211 19.3242 26.375 19.4844V28.25C26.375 28.9414 26.9336 29.5 27.625 29.5C28.3164 29.5 28.875 28.9414 28.875 28.25V19.4844C30.6289 19.3242 32 17.8516 32 16.0586C32 15.8086 31.9727 15.5586 31.918 15.3125L30.7344 9.98828C30.6641 9.67578 30.3711 9.46875 30.0547 9.50391C29.7383 9.53906 29.5 9.80469 29.5 10.125V15.3672C29.5 15.5781 29.3281 15.75 29.1172 15.75C28.918 15.75 28.7539 15.5977 28.7344 15.3984L28.2461 10.0703C28.2188 9.74609 27.9492 9.5 27.625 9.5C27.3008 9.5 27.0312 9.74609 27.0039 10.0703L26.5195 15.3984C26.5 15.5977 26.3359 15.75 26.1367 15.75C25.9258 15.75 25.7539 15.5781 25.7539 15.3672V10.125H25.75ZM27.6367 16.0625H27.625H27.6133L27.625 16.0352L27.6367 16.0625Z" fill="#827F84"/>
</g>
<path d="M23.298 38.77V48.5H21.702V41.836L18.734 48.5H17.628L14.646 41.836V48.5H13.05V38.77H14.772L18.188 46.4L21.59 38.77H23.298ZM32.4657 44.454C32.4657 44.7433 32.447 45.0047 32.4097 45.238H26.5157C26.5624 45.854 26.791 46.3487 27.2017 46.722C27.6124 47.0953 28.1164 47.282 28.7137 47.282C29.5724 47.282 30.179 46.9227 30.5337 46.204H32.2557C32.0224 46.9133 31.5977 47.4967 30.9817 47.954C30.375 48.402 29.619 48.626 28.7137 48.626C27.9764 48.626 27.3137 48.4627 26.7257 48.136C26.147 47.8 25.6897 47.3333 25.3537 46.736C25.027 46.1293 24.8637 45.4293 24.8637 44.636C24.8637 43.8427 25.0224 43.1473 25.3397 42.55C25.6664 41.9433 26.119 41.4767 26.6977 41.15C27.2857 40.8233 27.9577 40.66 28.7137 40.66C29.4417 40.66 30.0904 40.8187 30.6597 41.136C31.229 41.4533 31.6724 41.9013 31.9897 42.48C32.307 43.0493 32.4657 43.7073 32.4657 44.454ZM30.7997 43.95C30.7904 43.362 30.5804 42.8907 30.1697 42.536C29.759 42.1813 29.2504 42.004 28.6437 42.004C28.093 42.004 27.6217 42.1813 27.2297 42.536C26.8377 42.8813 26.6044 43.3527 26.5297 43.95H30.7997ZM37.9283 40.66C38.535 40.66 39.0763 40.786 39.5523 41.038C40.0377 41.29 40.4157 41.6633 40.6863 42.158C40.957 42.6527 41.0923 43.25 41.0923 43.95V48.5H39.5103V44.188C39.5103 43.4973 39.3377 42.97 38.9923 42.606C38.647 42.2327 38.1757 42.046 37.5783 42.046C36.981 42.046 36.505 42.2327 36.1503 42.606C35.805 42.97 35.6323 43.4973 35.6323 44.188V48.5H34.0363V40.786H35.6323V41.668C35.8937 41.3507 36.225 41.1033 36.6263 40.926C37.037 40.7487 37.471 40.66 37.9283 40.66ZM50.1141 40.786V48.5H48.5181V47.59C48.2661 47.9073 47.9348 48.1593 47.5241 48.346C47.1228 48.5233 46.6935 48.612 46.2361 48.612C45.6295 48.612 45.0835 48.486 44.5981 48.234C44.1221 47.982 43.7441 47.6087 43.4641 47.114C43.1935 46.6193 43.0581 46.022 43.0581 45.322V40.786H44.6401V45.084C44.6401 45.7747 44.8128 46.3067 45.1581 46.68C45.5035 47.044 45.9748 47.226 46.5721 47.226C47.1695 47.226 47.6408 47.044 47.9861 46.68C48.3408 46.3067 48.5181 45.7747 48.5181 45.084V40.786H50.1141Z" fill="#7E7E7E"/>
<rect x="0.5" y="0.5" width="63" height="63" rx="7.5" stroke="#DCDCDC"/>
<defs>
<clipPath id="clip0_245_2100">
<rect width="17.5" height="20" fill="white" transform="translate(23.25 9.5)"/>
</clipPath>
</defs>
</svg>
