<svg width="64" height="64" viewBox="0 0 64 64" fill="none" xmlns="http://www.w3.org/2000/svg">
<rect x="0.5" y="0.5" width="63" height="63" rx="7.5" fill="white"/>
<g clip-path="url(#clip0_245_1975)">
<path d="M25.0411 9.5H27.4265V11.3148H25.0411C24.4467 11.3144 23.8764 11.5234 23.4557 11.8958C23.0358 12.269 22.8002 12.7748 22.8006 13.3021V15.8997H20.751V13.3053C20.7517 12.8066 20.8632 12.3128 21.0792 11.8523C21.2952 11.3917 21.6114 10.9735 22.0098 10.6214C22.4068 10.2666 22.879 9.98479 23.3992 9.79234C23.9194 9.59989 24.4774 9.50054 25.0411 9.5ZM21.3473 18.4372H42.6527C42.8109 18.4389 42.962 18.4956 43.0736 18.5951C43.1851 18.6947 43.2481 18.8291 43.2491 18.9694V20.0306C43.2496 20.1718 43.1872 20.3074 43.0755 20.408C42.9638 20.5086 42.8119 20.566 42.6527 20.5677H21.3473C21.188 20.5664 21.0358 20.5092 20.924 20.4085C20.8122 20.3078 20.75 20.1719 20.751 20.0306V18.9694C20.751 18.8288 20.8137 18.6939 20.9254 18.5942C21.0372 18.4945 21.1888 18.438 21.3473 18.4372ZM37.37 9.5H38.959C39.5214 9.50027 40.0782 9.59905 40.5974 9.79065C41.1167 9.98225 41.5881 10.2629 41.9848 10.6165C42.3841 10.969 42.7011 11.388 42.9174 11.8494C43.1337 12.3109 43.2452 12.8056 43.2454 13.3053V15.8997H41.2031V13.3053C41.2026 13.0442 41.1439 12.7857 41.0306 12.5447C40.9172 12.3036 40.7514 12.0848 40.5426 11.9007C40.3344 11.7159 40.0873 11.5694 39.8152 11.4694C39.5432 11.3694 39.2516 11.318 38.9572 11.318H37.37V9.5ZM43.2417 22.8219V25.6947C43.2379 26.7028 42.7846 27.6688 41.9809 28.3817C41.1772 29.0945 40.0883 29.4966 38.9517 29.5H37.37V27.6852H38.959C39.5533 27.6827 40.1224 27.4721 40.5426 27.0994C40.9629 26.7266 41.2002 26.2218 41.2031 25.6947V22.8219H43.2417ZM27.4191 29.4951H25.0337C23.8989 29.4938 22.8112 29.0928 22.0098 28.3802L21.951 28.3232C21.1825 27.6179 20.7523 26.6756 20.751 25.6947V22.8219H22.7969V25.6947C22.7973 26.2038 23.0172 26.6936 23.4116 27.0635L23.4575 27.0993C23.6651 27.2845 23.9118 27.4316 24.1835 27.5322C24.4552 27.6327 24.7466 27.6847 25.0411 27.6852H27.4265V29.5L27.4191 29.4951Z" fill="#7E7E7E"/>
</g>
<path d="M30.582 50.264L28.874 48.416C28.454 48.5373 27.992 48.598 27.488 48.598C26.5827 48.598 25.7473 48.388 24.982 47.968C24.226 47.5387 23.624 46.946 23.176 46.19C22.7373 45.4247 22.518 44.566 22.518 43.614C22.518 42.662 22.7373 41.808 23.176 41.052C23.624 40.296 24.226 39.708 24.982 39.288C25.7473 38.8587 26.5827 38.644 27.488 38.644C28.4027 38.644 29.238 38.8587 29.994 39.288C30.7593 39.708 31.3613 40.296 31.8 41.052C32.2387 41.808 32.458 42.662 32.458 43.614C32.458 44.51 32.262 45.322 31.87 46.05C31.4873 46.7687 30.9553 47.3473 30.274 47.786L32.612 50.264H30.582ZM24.156 43.614C24.156 44.3327 24.296 44.9673 24.576 45.518C24.8653 46.0593 25.262 46.4793 25.766 46.778C26.27 47.0673 26.844 47.212 27.488 47.212C28.132 47.212 28.706 47.0673 29.21 46.778C29.714 46.4793 30.106 46.0593 30.386 45.518C30.6753 44.9673 30.82 44.3327 30.82 43.614C30.82 42.8953 30.6753 42.2653 30.386 41.724C30.106 41.1827 29.714 40.7673 29.21 40.478C28.706 40.1887 28.132 40.044 27.488 40.044C26.844 40.044 26.27 40.1887 25.766 40.478C25.262 40.7673 24.8653 41.1827 24.576 41.724C24.296 42.2653 24.156 42.8953 24.156 43.614ZM39.1235 48.5L36.8835 44.608H35.6655V48.5H34.0695V38.77H37.4295C38.1762 38.77 38.8062 38.9007 39.3195 39.162C39.8422 39.4233 40.2295 39.7733 40.4815 40.212C40.7429 40.6507 40.8735 41.1407 40.8735 41.682C40.8735 42.3167 40.6869 42.8953 40.3135 43.418C39.9495 43.9313 39.3849 44.2813 38.6195 44.468L41.0275 48.5H39.1235ZM35.6655 43.334H37.4295C38.0269 43.334 38.4749 43.1847 38.7735 42.886C39.0815 42.5873 39.2355 42.186 39.2355 41.682C39.2355 41.178 39.0862 40.786 38.7875 40.506C38.4889 40.2167 38.0362 40.072 37.4295 40.072H35.6655V43.334Z" fill="#7E7E7E"/>
<rect x="0.5" y="0.5" width="63" height="63" rx="7.5" stroke="#DCDCDC"/>
<defs>
<clipPath id="clip0_245_1975">
<rect width="22.4981" height="20" fill="white" transform="translate(20.751 9.5)"/>
</clipPath>
</defs>
</svg>
